<svg width="1440" height="1024" viewBox="0 0 1440 1024" fill="none" xmlns="http://www.w3.org/2000/svg">
<rect width="1440" height="1024" fill="white"/>
<g clip-path="url(#clip0_11508_3)">
<rect width="1440" height="1024" fill="#F5F7FB"/>
<path d="M244.922 319.42H246.615C246.564 317.557 244.916 316.205 242.553 316.205C240.217 316.205 238.428 317.54 238.428 319.545C238.428 321.165 239.587 322.114 241.456 322.619L242.831 322.994C244.075 323.324 245.036 323.733 245.036 324.767C245.036 325.903 243.95 326.653 242.456 326.653C241.104 326.653 239.979 326.051 239.876 324.784H238.115C238.229 326.892 239.859 328.193 242.467 328.193C245.2 328.193 246.774 326.756 246.774 324.784C246.774 322.688 244.905 321.875 243.428 321.511L242.291 321.216C241.382 320.983 240.172 320.557 240.178 319.443C240.178 318.455 241.081 317.722 242.513 317.722C243.848 317.722 244.797 318.347 244.922 319.42ZM252.81 319.273H251.02V317.182H249.321V319.273H248.043V320.636H249.321V325.79C249.315 327.375 250.526 328.142 251.866 328.114C252.406 328.108 252.77 328.006 252.969 327.932L252.662 326.528C252.548 326.551 252.338 326.602 252.065 326.602C251.514 326.602 251.02 326.42 251.02 325.438V320.636H252.81V319.273ZM257.229 328.193C258.672 328.193 259.484 327.46 259.808 326.807H259.876V328H261.536V322.205C261.536 319.665 259.536 319.159 258.149 319.159C256.57 319.159 255.115 319.795 254.547 321.386L256.143 321.75C256.393 321.131 257.03 320.534 258.172 320.534C259.268 320.534 259.831 321.108 259.831 322.097V322.136C259.831 322.756 259.195 322.744 257.626 322.926C255.973 323.119 254.28 323.551 254.28 325.534C254.28 327.25 255.57 328.193 257.229 328.193ZM257.598 326.83C256.638 326.83 255.945 326.398 255.945 325.557C255.945 324.648 256.751 324.324 257.734 324.193C258.286 324.119 259.592 323.972 259.837 323.727V324.852C259.837 325.886 259.013 326.83 257.598 326.83ZM263.798 328H265.497V322.67C265.497 321.528 266.378 320.705 267.582 320.705C267.935 320.705 268.332 320.767 268.469 320.807V319.182C268.298 319.159 267.963 319.142 267.747 319.142C266.724 319.142 265.849 319.722 265.531 320.659H265.44V319.273H263.798V328ZM274.528 319.273H272.739V317.182H271.04V319.273H269.761V320.636H271.04V325.79C271.034 327.375 272.244 328.142 273.585 328.114C274.125 328.108 274.489 328.006 274.688 327.932L274.381 326.528C274.267 326.551 274.057 326.602 273.784 326.602C273.233 326.602 272.739 326.42 272.739 325.438V320.636H274.528V319.273ZM288.233 331.273V319.273H286.574V320.688H286.432C286.131 320.148 285.545 319.159 283.926 319.159C281.818 319.159 280.261 320.824 280.261 323.653C280.261 326.477 281.795 328.17 283.909 328.17C285.5 328.17 286.125 327.199 286.432 326.642H286.534V331.273H288.233ZM286.568 323.636C286.568 325.472 285.75 326.722 284.29 326.722C282.773 326.722 281.977 325.386 281.977 323.636C281.977 321.903 282.75 320.602 284.29 320.602C285.773 320.602 286.568 321.812 286.568 323.636ZM296.045 324.381C296.051 325.864 294.949 326.568 293.994 326.568C292.943 326.568 292.216 325.807 292.216 324.619V319.273H290.517V324.824C290.517 326.989 291.705 328.114 293.381 328.114C294.693 328.114 295.585 327.42 295.989 326.489H296.08V328H297.75V319.273H296.045V324.381ZM300.033 328H301.732V319.273H300.033V328ZM300.891 317.926C301.476 317.926 301.964 317.472 301.964 316.915C301.964 316.358 301.476 315.898 300.891 315.898C300.3 315.898 299.817 316.358 299.817 316.915C299.817 317.472 300.3 317.926 300.891 317.926ZM303.835 328H310.841V326.523H306.136V326.443L310.682 320.511V319.273H303.989V320.75H308.562V320.83L303.835 326.835V328Z" fill="#F5F7FB"/>
<path fill-rule="evenodd" clip-rule="evenodd" d="M239.959 783.159C308.859 827.332 393.888 865.457 411.871 940.649C431.775 1023.87 394.088 1107.01 328.64 1153.96C266.556 1198.49 176.252 1198.16 97.2064 1166.36C30.6642 1139.59 5.02512 1068.48 -32.9909 1008.47C-73.9083 943.889 -145.472 880.839 -125.873 814.248C-105.435 744.807 -21.7933 717.954 54.4198 711.478C120.524 705.86 180.673 745.149 239.959 783.159Z" fill="#DEEBF8"/>
<path fill-rule="evenodd" clip-rule="evenodd" d="M1156.84 219.984C1112.66 173.659 1051.88 131.169 1064.61 62.0549C1078.69 -14.4431 1143.75 -85.2132 1219.61 -120.844C1291.56 -154.644 1371.41 -145.491 1429.3 -109.254C1478.03 -78.7491 1473.64 -12.5384 1484.44 44.9381C1496.07 106.801 1535.42 170.295 1492.69 228.02C1448.13 288.215 1363.82 304.063 1293.85 302.389C1233.16 300.937 1194.86 259.845 1156.84 219.984Z" fill="#FFFAD1"/>
</g>
<defs>
<clipPath id="clip0_11508_3">
<rect width="1440" height="1024" fill="white"/>
</clipPath>
</defs>
</svg>
